<?xml version="1.0" encoding="UTF-8"?>
<svg id="Layer_1" data-name="Layer 1" xmlns="http://www.w3.org/2000/svg" viewBox="0 0 1282.02 658.45">
  <defs>
    <style>
      .cls-1 {
        fill: #fff;
        fill-rule: evenodd;
      }
    </style>
  </defs>
  <path class="cls-1" d="M1066.56,188.92c-99.95.02-274.39.05-340.78.05l13.12-28.13h-126.69s-4.36,9.38-13.08,28.13c-78.7,0-210.07-.02-286.03-.03-35.81,0-68.37,20.74-83.51,53.2l-48.42,103.82c-14.08,30.2,7.97,64.81,41.29,64.8l122.39-.02-8.03,14.4c-4.96,8.46-12.28,13.69-21.5,13.69h-156.54l-38.75,77.78,221.51.06c48,0,78.51-9.74,102.95-62.13,36.85-79.04,87.54-187.77,87.54-187.77h30.99c-13.16,28.3-39.18,84.1-59.93,128.57-14.17,30.37,8,65.17,41.51,65.17h126.6s36.23-77.83,36.23-77.83h-52.53c-9.07,0-15.07-9.41-11.24-17.63,14.59-31.3,43.7-93.73,45.83-98.28h97.97l-59.91,128.48c-14.18,30.41,8.02,65.25,41.57,65.25h229.65l36.67-77.82h-152.56c-9.4,0-15.49-9.7-11.65-18.29,2.46-5.51,3.83-8.88,4.25-9.8h127.57c35.13,0,67.09-20.36,81.93-52.21,3.6-7.72,13.12-28.3,22.73-48.91,14.03-30.08-7.93-64.56-41.13-64.55ZM374.44,332.89h-40.41c-9.31,0-15.46-9.66-11.53-18.1l22.39-48.02h60.39l-30.84,66.12ZM931.75,326.49h-45.36l27.85-59.72,60.43-.03-21.5,46.11c-3.88,8.32-12.23,13.64-21.41,13.64Z"/>
</svg>